# File created by Blade
# Date/Time:  Wed Apr 08 16:19:59 2015
# Frame Rate: 120.000 fps
#------------------------------------------------------
:FULLY-SPECIFIED
:DEGREES
2265
root -17.355853 28.580831 0.793302 353.026424 -75.378943 -410.110796
Spine -77.389938 -14.734713 4.859506
Head -94.688598 5.048713 11.743560
LeftShoulder -13.959381 -12.281376 45.851431
LeftArm 247.472309 -62.868786 -211.510202
LeftForeArm -20.995032 -0.000000 19.769677
LeftHand 19.857968 -0.000000 107.137600
LeftHandThumb1 -26.253704 0.000000 33.147579
RightShoulder -22.444212 53.753149 -59.984948
RightArm -21.933455 58.882751 -46.471908
RightForeArm 33.894318 -0.000000 24.898868
RightHand 21.027273 -0.000000 -102.191689
RightHandThumb1 -24.326973 -0.000000 -32.862282
LeftUpLeg 7.467518 4.152084 9.752120
LeftLeg 29.725231 -0.000000 -0.000000
LeftFoot 13.494589 -6.833039 -11.869071
LeftToeBase -26.655733 -0.000000 0.000000
RightUpLeg 5.349047 -14.809990 -6.180384
RightLeg 35.718792 -0.000000 -0.000000
RightFoot 33.930576 -3.768362 -1.552308
RightToeBase -24.779113 -0.000000 0.000000
2266
root -17.383593 28.582380 0.776870 352.999793 -75.459936 -410.083467
Spine -77.394269 -14.671662 4.821779
Head -94.587970 4.992563 11.734073
LeftShoulder -13.987221 -12.196925 45.862175
LeftArm 246.904774 -62.908946 -211.095401
LeftForeArm -20.897934 0.000000 19.946578
LeftHand 19.734137 -0.000000 107.246914
LeftHandThumb1 -26.253704 0.000000 33.147579
RightShoulder -22.549138 53.722244 -60.106256
RightArm -21.955459 59.089158 -46.268301
RightForeArm 33.660427 0.000000 25.276344
RightHand 20.975618 -0.000000 -102.218509
RightHandThumb1 -24.326973 -0.000000 -32.862282
LeftUpLeg 7.434277 4.108446 9.741602
LeftLeg 29.901050 -0.000000 -0.000000
LeftFoot 13.361632 -6.769202 -11.793060
LeftToeBase -26.895457 -0.000000 0.000000
RightUpLeg 5.314388 -14.850027 -6.200172
RightLeg 35.885301 -0.000000 -0.000000
RightFoot 33.774420 -3.671003 -1.558294
RightToeBase -24.829089 -0.000000 0.000000
2267
root -17.419385 28.585657 0.758803 353.032579 -75.531080 -410.171160
Spine -77.332591 -14.630342 4.797283
Head -94.481660 4.949357 11.719818
LeftShoulder -14.030174 -12.075494 45.804877
LeftArm 246.371945 -62.938411 -210.629031
LeftForeArm -20.866657 -0.000000 20.037053
LeftHand 19.705424 -0.000000 107.398006
LeftHandThumb1 -26.253704 0.000000 33.147579
RightShoulder -22.623945 53.723695 -60.162542
RightArm -21.840102 59.236508 -46.045208
RightForeArm 33.432399 0.000000 25.514965
RightHand 20.915484 -0.000000 -102.243602
RightHandThumb1 -24.326973 -0.000000 -32.862282
LeftUpLeg 7.445339 4.054360 9.775258
LeftLeg 30.118202 -0.000000 -0.000000
LeftFoot 13.209316 -6.745602 -11.696808
LeftToeBase -27.168602 -0.000000 0.000000
RightUpLeg 5.345119 -14.890219 -6.201813
RightLeg 36.056231 -0.000000 -0.000000
RightFoot 33.564004 -3.602247 -1.527329
RightToeBase -24.855991 -0.000000 0.000000
2268
root -17.456704 28.589214 0.740254 353.072765 -75.613506 -410.249568
Spine -77.285615 -14.580660 4.792300
Head -94.358529 4.923229 11.696393
LeftShoulder -14.103705 -11.938331 45.839353
LeftArm 245.249938 -62.919145 -209.783120
LeftForeArm -20.577953 0.000000 20.475331
LeftHand 19.746797 0.000000 107.198554
LeftHandThumb1 -26.253704 0.000000 33.147579
RightShoulder -22.709830 53.671569 -60.359261
RightArm -22.086381 59.352154 -45.919244
RightForeArm 33.114540 -0.000000 25.931485
RightHand 20.850339 -0.000000 -102.226870
RightHandThumb1 -24.326973 -0.000000 -32.862282
LeftUpLeg 7.428843 4.015440 9.808288
LeftLeg 30.364330 -0.000000 -0.000000
LeftFoot 13.047912 -6.719587 -11.609227
LeftToeBase -27.433006 -0.000000 0.000000
RightUpLeg 5.348370 -14.926848 -6.197779
RightLeg 36.237299 -0.000000 -0.000000
RightFoot 33.394705 -3.513324 -1.577045
RightToeBase -24.829421 -0.000000 0.000000
2269
root -17.495567 28.592761 0.724720 353.054998 -75.696909 -410.286015
Spine -77.220939 -14.530959 4.770662
Head -94.238822 4.923158 11.679169
LeftShoulder -14.155895 -11.861807 45.861560
LeftArm 244.393559 -62.935151 -209.072047
LeftForeArm -20.313966 -0.000000 20.718110
LeftHand 19.718386 -0.000000 107.136177
LeftHandThumb1 -26.253704 0.000000 33.147579
RightShoulder -22.841613 53.584299 -60.566391
RightArm -22.329934 59.582335 -45.744136
RightForeArm 32.773688 0.000000 26.420703
RightHand 20.762797 -0.000000 -102.238765
RightHandThumb1 -24.326973 -0.000000 -32.862282
LeftUpLeg 7.434075 3.977754 9.827611
LeftLeg 30.605063 -0.000000 -0.000000
LeftFoot 12.872395 -6.677554 -11.525026
LeftToeBase -27.699039 -0.000000 0.000000
RightUpLeg 5.366670 -14.965016 -6.218059
RightLeg 36.420185 -0.000000 -0.000000
RightFoot 33.239681 -3.410822 -1.536731
RightToeBase -24.899398 -0.000000 0.000000
